<svg width="35" height="35" viewBox="0 0 35 35" fill="none" xmlns="http://www.w3.org/2000/svg">
<path d="M21.6661 24.9108C24.429 24.5831 27.0933 23.9335 29.6203 23.0007C27.5249 20.6748 26.2496 17.5957 26.2496 14.2187V13.1967C26.2498 13.1728 26.2499 13.1489 26.2499 13.125C26.2499 8.29251 22.3324 4.375 17.4999 4.375C12.6674 4.375 8.74988 8.29251 8.74988 13.125L8.74959 14.2187C8.74959 17.5957 7.47423 20.6748 5.37891 23.0007C7.90609 23.9336 10.5705 24.5832 13.3336 24.9109M21.6661 24.9108C20.2999 25.0729 18.9095 25.1562 17.4996 25.1562C16.0899 25.1562 14.6997 25.0729 13.3336 24.9109M21.6661 24.9108C21.8017 25.3329 21.8749 25.7829 21.8749 26.25C21.8749 28.6662 19.9161 30.625 17.4999 30.625C15.0836 30.625 13.1249 28.6662 13.1249 26.25C13.1249 25.7829 13.1981 25.3329 13.3336 24.9109" stroke="#04001A" stroke-width="2.1875" stroke-linecap="round" stroke-linejoin="round"/>
</svg>
