<svg width="185" height="75" viewBox="0 0 185 75" fill="none" xmlns="http://www.w3.org/2000/svg">
<g clip-path="url(#clip0_1_357)">
<path d="M84.3177 0H0V74.6741H84.3177V0Z" fill="#1E00B9"/>
<path d="M67.5615 40.2834C68.5132 41.2351 68.3688 42.8203 67.258 43.5775C65.9645 44.4585 64.5502 45.089 63.0859 45.4721C60.8348 46.0614 58.4629 46.0614 56.2148 45.4721C54.7504 45.089 53.3361 44.4585 52.0427 43.5775C50.9319 42.8203 50.7875 41.2351 51.7392 40.2834C51.748 40.2746 51.7598 40.2628 51.7687 40.254C52.4905 39.5321 53.6278 39.4054 54.4705 39.98C55.3544 40.581 56.3179 41.0141 57.3168 41.2734C58.846 41.6741 60.4576 41.6741 61.9868 41.2734C62.9857 41.0112 63.9492 40.581 64.8331 39.98C65.6758 39.4054 66.8131 39.5321 67.5349 40.251L67.5644 40.2805L67.5615 40.2834Z" fill="#1EFFBC"/>
<path d="M67.205 29.7438C65.8944 28.4332 63.7696 28.4332 62.459 29.7438C61.1484 31.0544 61.1484 33.1793 62.459 34.4899C63.7696 35.8005 65.8944 35.8005 67.205 34.4899C68.5156 33.1793 68.5156 31.0544 67.205 29.7438Z" fill="#1EFFBC"/>
<path d="M56.8315 29.743C55.5209 28.4324 53.396 28.4324 52.0854 29.743C50.7748 31.0536 50.7748 33.1784 52.0854 34.489C53.396 35.7996 55.5209 35.7996 56.8315 34.489C58.1421 33.1784 58.1421 31.0536 56.8315 29.743Z" fill="#1EFFBC"/>
<path d="M46.9837 35.2981H44.7562V33.0706C44.7562 31.839 43.7573 30.8431 42.5287 30.8431C41.2971 30.8431 40.3012 31.842 40.3012 33.0706V35.2981H38.0737C36.8421 35.2981 35.8462 36.2969 35.8462 37.5256C35.8462 38.7572 36.845 39.7531 38.0737 39.7531H40.3012V41.9806C40.3012 43.2122 41.3 44.2081 42.5287 44.2081C43.7603 44.2081 44.7562 43.2092 44.7562 41.9806V39.7531H46.9837C48.2153 39.7531 49.2112 38.7543 49.2112 37.5256C49.2112 36.294 48.2123 35.2981 46.9837 35.2981Z" fill="white"/>
<path d="M33.3237 40.2834C34.2754 41.2351 34.131 42.8203 33.0202 43.5775C31.7267 44.4585 30.3124 45.089 28.8481 45.4721C26.597 46.0614 24.2251 46.0614 21.977 45.4721C20.5126 45.089 19.0984 44.4585 17.8049 43.5775C16.6941 42.8203 16.5497 41.2351 17.5014 40.2834C17.5102 40.2746 17.522 40.2628 17.5309 40.254C18.2527 39.5321 19.3901 39.4054 20.2327 39.98C21.0754 40.5545 22.0801 41.0141 23.079 41.2734C24.6082 41.6741 26.2199 41.6741 27.749 41.2734C28.7479 41.0112 29.7114 40.581 30.5953 39.98C31.438 39.4054 32.5753 39.5321 33.2972 40.251L33.3266 40.2805L33.3237 40.2834Z" fill="#FFE155"/>
<path d="M32.9707 29.7434C31.6601 28.4328 29.5352 28.4328 28.2246 29.7434C26.914 31.054 26.914 33.1789 28.2246 34.4895C29.5352 35.8 31.6601 35.8 32.9707 34.4895C34.2812 33.1789 34.2812 31.054 32.9707 29.7434Z" fill="#FFE155"/>
<path d="M22.5952 29.7447C21.2846 28.4341 19.1597 28.4341 17.8491 29.7447C16.5385 31.0552 16.5385 33.1801 17.8491 34.4907C19.1597 35.8013 21.2846 35.8013 22.5952 34.4907C23.9058 33.1801 23.9058 31.0552 22.5952 29.7447Z" fill="#FFE155"/>
</g>
<path d="M108.418 27.693L108.31 23.985H118.426C118.546 24.153 118.654 24.405 118.75 24.741C118.846 25.053 118.894 25.389 118.894 25.749C118.894 26.373 118.75 26.853 118.462 27.189C118.174 27.525 117.778 27.693 117.274 27.693H108.418ZM111.622 23.985L111.694 27.693H101.578C101.458 27.501 101.35 27.249 101.254 26.937C101.158 26.625 101.11 26.277 101.11 25.893C101.11 25.245 101.254 24.765 101.542 24.453C101.83 24.141 102.226 23.985 102.73 23.985H111.622ZM107.698 26.721H112.234V45.765C112.042 45.837 111.742 45.897 111.334 45.945C110.95 46.017 110.554 46.053 110.146 46.053C109.258 46.053 108.622 45.897 108.238 45.585C107.878 45.249 107.698 44.697 107.698 43.929V26.721ZM127.564 42.993C128.284 42.993 128.932 42.921 129.508 42.777C130.084 42.633 130.504 42.477 130.768 42.309V38.205L127.204 38.565C126.22 38.637 125.464 38.853 124.936 39.213C124.432 39.549 124.18 40.053 124.18 40.725C124.18 41.421 124.456 41.973 125.008 42.381C125.56 42.789 126.412 42.993 127.564 42.993ZM127.384 28.305C129.736 28.305 131.608 28.809 133 29.817C134.392 30.801 135.088 32.361 135.088 34.497V42.777C135.088 43.353 134.944 43.809 134.656 44.145C134.392 44.481 134.044 44.781 133.612 45.045C132.94 45.429 132.088 45.741 131.056 45.981C130.024 46.245 128.86 46.377 127.564 46.377C125.164 46.377 123.28 45.921 121.912 45.009C120.544 44.073 119.86 42.693 119.86 40.869C119.86 39.261 120.364 38.037 121.372 37.197C122.404 36.333 123.892 35.805 125.836 35.613L130.732 35.109V34.461C130.732 33.501 130.396 32.805 129.724 32.373C129.076 31.941 128.152 31.725 126.952 31.725C126.016 31.725 125.104 31.845 124.216 32.085C123.328 32.325 122.536 32.613 121.84 32.949C121.6 32.757 121.384 32.493 121.192 32.157C121 31.821 120.904 31.473 120.904 31.113C120.904 30.249 121.384 29.613 122.344 29.205C123.016 28.893 123.796 28.665 124.684 28.521C125.596 28.377 126.496 28.305 127.384 28.305ZM146.337 42.993C147.057 42.993 147.705 42.921 148.281 42.777C148.857 42.633 149.277 42.477 149.541 42.309V38.205L145.977 38.565C144.993 38.637 144.237 38.853 143.709 39.213C143.205 39.549 142.953 40.053 142.953 40.725C142.953 41.421 143.229 41.973 143.781 42.381C144.333 42.789 145.185 42.993 146.337 42.993ZM146.157 28.305C148.509 28.305 150.381 28.809 151.773 29.817C153.165 30.801 153.861 32.361 153.861 34.497V42.777C153.861 43.353 153.717 43.809 153.429 44.145C153.165 44.481 152.817 44.781 152.385 45.045C151.713 45.429 150.861 45.741 149.829 45.981C148.797 46.245 147.633 46.377 146.337 46.377C143.937 46.377 142.053 45.921 140.685 45.009C139.317 44.073 138.633 42.693 138.633 40.869C138.633 39.261 139.137 38.037 140.145 37.197C141.177 36.333 142.665 35.805 144.609 35.613L149.505 35.109V34.461C149.505 33.501 149.169 32.805 148.497 32.373C147.849 31.941 146.925 31.725 145.725 31.725C144.789 31.725 143.877 31.845 142.989 32.085C142.101 32.325 141.309 32.613 140.613 32.949C140.373 32.757 140.157 32.493 139.965 32.157C139.773 31.821 139.677 31.473 139.677 31.113C139.677 30.249 140.157 29.613 141.117 29.205C141.789 28.893 142.569 28.665 143.457 28.521C144.369 28.377 145.269 28.305 146.157 28.305ZM158.667 36.333L163.095 36.549V45.765C162.903 45.837 162.627 45.897 162.267 45.945C161.907 46.017 161.511 46.053 161.079 46.053C160.263 46.053 159.651 45.909 159.243 45.621C158.859 45.309 158.667 44.769 158.667 44.001V36.333ZM163.095 38.817L158.667 38.601V22.437C158.835 22.389 159.099 22.329 159.459 22.257C159.843 22.185 160.239 22.149 160.647 22.149C161.511 22.149 162.135 22.305 162.519 22.617C162.903 22.905 163.095 23.433 163.095 24.201V38.817ZM170.967 41.769C170.583 40.977 170.139 39.993 169.635 38.817C169.155 37.617 168.651 36.237 168.123 34.677C167.595 33.093 167.055 31.353 166.503 29.457C166.767 29.169 167.103 28.929 167.511 28.737C167.919 28.545 168.363 28.449 168.843 28.449C169.467 28.449 169.971 28.593 170.355 28.881C170.763 29.145 171.075 29.637 171.291 30.357C171.915 32.229 172.539 34.077 173.163 35.901C173.811 37.725 174.495 39.585 175.215 41.481H175.359C175.815 40.425 176.271 39.189 176.727 37.773C177.183 36.333 177.615 34.845 178.023 33.309C178.455 31.773 178.815 30.309 179.103 28.917C179.391 28.773 179.691 28.665 180.003 28.593C180.315 28.497 180.651 28.449 181.011 28.449C181.611 28.449 182.127 28.593 182.559 28.881C183.015 29.145 183.243 29.601 183.243 30.249C183.243 30.825 183.135 31.593 182.919 32.553C182.727 33.489 182.451 34.533 182.091 35.685C181.731 36.837 181.311 38.037 180.831 39.285C180.375 40.533 179.883 41.745 179.355 42.921C178.851 44.073 178.335 45.117 177.807 46.053C176.583 48.237 175.455 49.881 174.423 50.985C173.391 52.113 172.395 52.677 171.435 52.677C170.691 52.677 170.079 52.449 169.599 51.993C169.143 51.561 168.867 51.021 168.771 50.373C169.299 49.917 169.851 49.365 170.427 48.717C171.027 48.093 171.603 47.421 172.155 46.701C172.707 45.981 173.175 45.273 173.559 44.577C173.151 44.457 172.743 44.217 172.335 43.857C171.927 43.473 171.471 42.777 170.967 41.769Z" fill="#1E00B9"/>
<defs>
<clipPath id="clip0_1_357">
<rect width="84.3177" height="74.6741" rx="11.5244" fill="white"/>
</clipPath>
</defs>
</svg>
